<svg xmlns="http://www.w3.org/2000/svg" viewBox="0 0 48 48" role="img" aria-label="JamiaPrep logo">
  <defs>
    <linearGradient id="jamiaPrepGrad" x1="0" y1="0" x2="48" y2="48" gradientUnits="userSpaceOnUse">
      <stop offset="0" stop-color="#1e3a8a"/>
      <stop offset="1" stop-color="#0d9488"/>
    </linearGradient>
  </defs>
  <rect width="48" height="48" rx="11" fill="url(#jamiaPrepGrad)"/>
  <!-- open book -->
  <path d="M24 15.5 C20.5 13.4 16.4 13.1 12.5 14.2 V32.6 C16.4 31.5 20.5 31.8 24 33.9 C27.5 31.8 31.6 31.5 35.5 32.6 V14.2 C31.6 13.1 27.5 13.4 24 15.5 Z"
        fill="#ffffff"/>
  <path d="M24 15.5 V33.9" stroke="#0d9488" stroke-width="1.6" stroke-linecap="round"/>
  <path d="M15.5 19 C18 18.4 21 18.5 23 19.4 M15.5 23 C18 22.4 21 22.5 23 23.4 M15.5 27 C18 26.4 21 26.5 23 27.4"
        stroke="#1e3a8a" stroke-width="1.3" stroke-linecap="round" fill="none" opacity="0.55"/>
  <path d="M25 19.4 C27 18.5 30 18.4 32.5 19 M25 23.4 C27 22.5 30 22.4 32.5 23 M25 27.4 C27 26.5 30 26.4 32.5 27"
        stroke="#1e3a8a" stroke-width="1.3" stroke-linecap="round" fill="none" opacity="0.55"/>
</svg>
